<svg width="40" height="40" viewBox="0 0 40 40" fill="none" xmlns="http://www.w3.org/2000/svg">
<path d="M0 7.5V10H23.75V28.75H16.055C15.4975 26.6012 13.565 25 11.25 25C8.935 25 7.0025 26.6012 6.445 28.75H5V22.5H2.5V31.25H6.445C7.0025 33.3988 8.935 35 11.25 35C13.565 35 15.4975 33.3988 16.055 31.25H26.445C27.0025 33.3988 28.935 35 31.25 35C33.565 35 35.4975 33.3988 36.055 31.25H40V21.055L39.9212 20.8588L37.4212 13.3588L37.15 12.5H26.25V7.5H0ZM1.25 12.5V15H12.5V12.5H1.25ZM26.25 15H35.3512L37.5 21.4062V28.75H36.055C35.4975 26.6012 33.565 25 31.25 25C28.935 25 27.0025 26.6012 26.445 28.75H26.25V15ZM2.5 17.5V20H10V17.5H2.5ZM11.25 27.5C12.6462 27.5 13.75 28.6038 13.75 30C13.75 31.3962 12.6462 32.5 11.25 32.5C9.85375 32.5 8.75 31.3962 8.75 30C8.75 28.6038 9.85375 27.5 11.25 27.5ZM31.25 27.5C32.6463 27.5 33.75 28.6038 33.75 30C33.75 31.3962 32.6463 32.5 31.25 32.5C29.8538 32.5 28.75 31.3962 28.75 30C28.75 28.6038 29.8538 27.5 31.25 27.5Z" fill="#FFB800"/>
</svg>
