<svg width="130" height="61" viewBox="0 0 130 61" fill="none" xmlns="http://www.w3.org/2000/svg">
<g clip-path="url(#clip0_5_160)">
<path d="M8 18V20.5H31.75V39.25H24.055C23.4975 37.1012 21.565 35.5 19.25 35.5C16.935 35.5 15.0025 37.1012 14.445 39.25H13V33H10.5V41.75H14.445C15.0025 43.8988 16.935 45.5 19.25 45.5C21.565 45.5 23.4975 43.8988 24.055 41.75H34.445C35.0025 43.8988 36.935 45.5 39.25 45.5C41.565 45.5 43.4975 43.8988 44.055 41.75H48V31.555L47.9212 31.3588L45.4212 23.8588L45.15 23H34.25V18H8ZM9.25 23V25.5H20.5V23H9.25ZM34.25 25.5H43.3512L45.5 31.9062V39.25H44.055C43.4975 37.1012 41.565 35.5 39.25 35.5C36.935 35.5 35.0025 37.1012 34.445 39.25H34.25V25.5ZM10.5 28V30.5H18V28H10.5ZM19.25 38C20.6462 38 21.75 39.1038 21.75 40.5C21.75 41.8962 20.6462 43 19.25 43C17.8538 43 16.75 41.8962 16.75 40.5C16.75 39.1038 17.8538 38 19.25 38ZM39.25 38C40.6463 38 41.75 39.1038 41.75 40.5C41.75 41.8962 40.6463 43 39.25 43C37.8538 43 36.75 41.8962 36.75 40.5C36.75 39.1038 37.8538 38 39.25 38Z" fill="#FFB800"/>
</g>
<path d="M68.28 44.952C67.24 44.952 66.272 44.8 65.376 44.496C64.496 44.208 63.728 43.8 63.072 43.272C62.416 42.76 61.896 42.144 61.512 41.424C61.144 40.72 60.96 39.952 60.96 39.12C60.96 38.816 60.984 38.424 61.032 37.944C61.08 37.464 61.144 36.912 61.224 36.288C61.32 35.664 61.424 35 61.536 34.296L64.704 34.728C64.544 35.736 64.416 36.632 64.32 37.416C64.224 38.2 64.176 38.752 64.176 39.072C64.176 39.68 64.344 40.216 64.68 40.68C65.016 41.144 65.488 41.504 66.096 41.76C66.72 42.032 67.448 42.168 68.28 42.168H75.072C76.112 42.168 76.888 41.904 77.4 41.376C77.912 40.864 78.168 40.08 78.168 39.024C78.168 38.496 78.08 38.088 77.904 37.8C77.728 37.496 77.416 37.24 76.968 37.032C76.52 36.808 75.872 36.568 75.024 36.312C74.064 36.008 73.224 35.72 72.504 35.448C71.784 35.176 71.192 34.88 70.728 34.56C70.264 34.224 69.912 33.824 69.672 33.36C69.448 32.896 69.336 32.312 69.336 31.608C69.336 30.552 69.568 29.688 70.032 29.016C70.496 28.328 71.16 27.816 72.024 27.48C72.888 27.128 73.912 26.952 75.096 26.952L74.976 29.736C74.384 29.736 73.904 29.8 73.536 29.928C73.184 30.04 72.928 30.224 72.768 30.48C72.608 30.72 72.528 31.04 72.528 31.44C72.528 31.776 72.608 32.056 72.768 32.28C72.944 32.488 73.192 32.672 73.512 32.832C73.832 32.992 74.2 33.136 74.616 33.264C75.032 33.376 75.488 33.512 75.984 33.672C76.864 33.928 77.632 34.216 78.288 34.536C78.96 34.84 79.52 35.192 79.968 35.592C80.432 35.992 80.776 36.48 81 37.056C81.24 37.616 81.36 38.288 81.36 39.072C81.36 40.224 81.104 41.24 80.592 42.12C80.08 43 79.352 43.688 78.408 44.184C77.48 44.696 76.368 44.952 75.072 44.952H68.28ZM83.496 39V26.952H86.712V37.776L84.84 36.216H89.232V39H83.496ZM74.976 29.736L75.096 26.952H83.496V29.736H74.976ZM89.232 39V36.216C89.328 36.216 89.4 36.248 89.448 36.312C89.512 36.376 89.56 36.472 89.592 36.6C89.64 36.728 89.672 36.88 89.688 37.056C89.704 37.216 89.712 37.4 89.712 37.608C89.712 37.816 89.704 38.008 89.688 38.184C89.672 38.36 89.64 38.512 89.592 38.64C89.56 38.752 89.512 38.84 89.448 38.904C89.4 38.968 89.328 39 89.232 39ZM79.296 24.744V22.008H82.392V24.744H79.296ZM83.664 24.744V22.008H86.76V24.744H83.664ZM67.464 50.088V47.352H70.56V50.088H67.464ZM71.832 50.088V47.352H74.928V50.088H71.832ZM95.1546 39V36.216H97.6746V39H95.1546ZM89.2266 39C89.1306 39 89.0586 38.968 89.0106 38.904C88.9466 38.84 88.8986 38.752 88.8666 38.64C88.8186 38.512 88.7866 38.36 88.7706 38.184C88.7546 38.008 88.7466 37.816 88.7466 37.608C88.7466 37.32 88.7626 37.08 88.7946 36.888C88.8266 36.68 88.8826 36.52 88.9626 36.408C89.0266 36.28 89.1146 36.216 89.2266 36.216V39ZM91.9386 39V22.032H95.1546V39H91.9386ZM89.2266 39V36.216H91.9386V39H89.2266ZM97.6746 39V36.216C97.7706 36.216 97.8506 36.248 97.9146 36.312C97.9786 36.376 98.0266 36.472 98.0586 36.6C98.0906 36.728 98.1146 36.88 98.1306 37.056C98.1466 37.216 98.1546 37.4 98.1546 37.608C98.1546 37.816 98.1466 38.008 98.1306 38.184C98.1146 38.36 98.0906 38.512 98.0586 38.64C98.0266 38.752 97.9786 38.84 97.9146 38.904C97.8506 38.968 97.7706 39 97.6746 39Z" fill="#007AFF"/>
<path d="M111.104 39V36.216H113.624V39H111.104ZM97.6641 39C97.5681 39 97.4961 38.968 97.4481 38.904C97.3841 38.84 97.3361 38.752 97.3041 38.64C97.2561 38.512 97.2241 38.36 97.2081 38.184C97.1921 38.008 97.1841 37.816 97.1841 37.608C97.1841 37.32 97.2001 37.08 97.2321 36.888C97.2641 36.68 97.3201 36.52 97.4001 36.408C97.4641 36.28 97.5521 36.216 97.6641 36.216V39ZM97.6641 39V36.216H108.872L107.888 37.056V29.04L108.704 29.736H105.68C104.976 29.736 104.424 29.824 104.024 30C103.624 30.176 103.344 30.504 103.184 30.984C103.024 31.448 102.944 32.112 102.944 32.976C102.944 33.92 103.024 34.624 103.184 35.088C103.344 35.536 103.624 35.84 104.024 36C104.424 36.144 104.976 36.216 105.68 36.216V38.712C104.32 38.712 103.2 38.52 102.32 38.136C101.44 37.752 100.784 37.144 100.352 36.312C99.9361 35.464 99.7281 34.352 99.7281 32.976C99.7281 31.664 99.9361 30.56 100.352 29.664C100.784 28.768 101.44 28.096 102.32 27.648C103.2 27.184 104.32 26.952 105.68 26.952H111.104V39H97.6641ZM113.624 39V36.216C113.72 36.216 113.8 36.248 113.864 36.312C113.928 36.376 113.976 36.472 114.008 36.6C114.04 36.728 114.064 36.88 114.08 37.056C114.096 37.216 114.104 37.4 114.104 37.608C114.104 37.816 114.096 38.008 114.08 38.184C114.064 38.36 114.04 38.512 114.008 38.64C113.976 38.752 113.928 38.84 113.864 38.904C113.8 38.968 113.72 39 113.624 39ZM102.296 24.744V22.008H105.392V24.744H102.296ZM106.664 24.744V22.008H109.76V24.744H106.664ZM113.625 39V36.216H118.017L116.145 37.776V26.952H119.361V39H113.625ZM113.625 39C113.529 39 113.457 38.968 113.409 38.904C113.345 38.84 113.297 38.752 113.265 38.64C113.217 38.512 113.185 38.36 113.169 38.184C113.153 38.008 113.145 37.816 113.145 37.608C113.145 37.32 113.161 37.08 113.193 36.888C113.225 36.68 113.281 36.52 113.361 36.408C113.425 36.28 113.513 36.216 113.625 36.216V39ZM116.145 24.744V22.008H119.361V24.744H116.145Z" fill="#FFB800"/>
<defs>
<clipPath id="clip0_5_160">
<rect width="40" height="40" fill="white" transform="translate(8 10.5)"/>
</clipPath>
</defs>
</svg>
